<svg width="15" height="15" viewBox="0 0 15 15" fill="none" xmlns="http://www.w3.org/2000/svg">
<path d="M7.5 15C9.48907 15 11.3967 14.2098 12.8033 12.8033C14.2098 11.3969 15 9.48921 15 7.5C15 5.5108 14.2098 3.60335 12.8033 2.19666C11.3968 0.790176 9.4892 0 7.5 0C5.5108 0 3.60335 0.790176 2.19666 2.19666C0.790176 3.60315 0 5.5108 0 7.5C0.00218918 9.48841 0.793143 11.3947 2.1991 12.8007C3.60519 14.2067 5.51159 14.9976 7.4998 14.9998L7.5 15ZM7.5 2.88478C7.70398 2.88478 7.89972 2.96577 8.04395 3.11013C8.18818 3.25436 8.26918 3.44998 8.26918 3.65395C8.26918 3.85806 8.18818 4.05367 8.04395 4.1979C7.89972 4.34213 7.704 4.42325 7.5 4.42325C7.296 4.42325 7.10028 4.34213 6.95605 4.1979C6.81182 4.05367 6.73082 3.85804 6.73082 3.65395C6.73082 3.44997 6.81182 3.25436 6.95605 3.11013C7.10028 2.96577 7.296 2.88478 7.5 2.88478ZM6.34617 10.7694H6.92308V6.50616C6.75117 6.4446 6.61853 6.3054 6.56533 6.13077C6.51202 5.95602 6.5446 5.76645 6.6529 5.61952C6.76133 5.47259 6.93273 5.3854 7.11532 5.38463H7.49997C7.65296 5.38463 7.79977 5.44542 7.90794 5.55359C8.01611 5.66189 8.07689 5.80856 8.07689 5.96155V10.7691H8.6538V10.7692C8.85997 10.7692 9.05043 10.8792 9.15345 11.0577C9.25647 11.2361 9.25647 11.4561 9.15345 11.6346C9.05043 11.8131 8.85997 11.923 8.6538 11.923H6.34614C6.13997 11.923 5.94952 11.8131 5.8465 11.6346C5.74348 11.4561 5.74348 11.2361 5.8465 11.0577C5.94952 10.8792 6.13998 10.7692 6.34614 10.7692L6.34617 10.7694Z" fill="black"/>
</svg>
