<svg width="16" height="21" viewBox="0 0 16 21" fill="none" xmlns="http://www.w3.org/2000/svg">
<path d="M8 20.5C7.46944 20.4974 6.96121 20.2862 6.58511 19.9119C6.20901 19.5377 5.99525 19.0305 5.99 18.5H9.99C9.99211 18.7674 9.94113 19.0325 9.84 19.28C9.71068 19.5767 9.51267 19.8385 9.2623 20.0437C9.01193 20.2488 8.71637 20.3915 8.4 20.46H8.353C8.23682 20.4842 8.11865 20.4976 8 20.5ZM16 17.5H0V15.5L2 14.5V9C1.94732 7.58912 2.26594 6.18913 2.924 4.94C3.24784 4.36727 3.68943 3.86971 4.21965 3.48015C4.74987 3.09058 5.35666 2.81787 6 2.68V0.5H10V2.68C12.579 3.294 14 5.538 14 9V14.5L16 15.5V17.5Z" fill="black"/>
</svg>
