<svg width="21" height="20" viewBox="0 0 21 20" fill="none" xmlns="http://www.w3.org/2000/svg">
<path d="M19.8828 9.42794L10.658 0.20994C10.5916 0.143389 10.5127 0.0905911 10.4259 0.0545669C10.339 0.0185427 10.2459 0 10.1519 0C10.0579 0 9.96477 0.0185427 9.87792 0.0545669C9.79107 0.0905911 9.71218 0.143389 9.64576 0.20994L0.421036 9.42794C0.15229 9.69669 0 10.0617 0 10.4425C0 11.233 0.642752 11.8758 1.43331 11.8758H2.40528V18.4533C2.40528 18.8497 2.72554 19.17 3.12194 19.17H8.71858V14.1534H11.2269V19.17H17.1819C17.5783 19.17 17.8985 18.8497 17.8985 18.4533V11.8758H18.8705C19.2512 11.8758 19.6162 11.7257 19.885 11.4547C20.4426 10.8948 20.4426 9.98783 19.8828 9.42794Z" fill="#2D2D2D"/>
</svg>
