<svg width="12" height="12" viewBox="0 0 12 12" fill="none" xmlns="http://www.w3.org/2000/svg">
<path fill-rule="evenodd" clip-rule="evenodd" d="M11.1268 8.81216C11.0207 8.7499 10.8701 8.66505 10.6747 8.5575C10.4794 8.44995 10.3021 8.35088 10.143 8.26042C9.98393 8.16984 9.8346 8.08212 9.69504 7.99727C9.67276 7.9803 9.60299 7.93082 9.48572 7.84873L9.48594 7.84862C9.39139 7.78041 9.29205 7.71947 9.18868 7.66613C9.11456 7.62822 9.03294 7.60784 8.95002 7.60674C8.8384 7.60674 8.69886 7.6874 8.53137 7.84873V7.84862C8.36346 8.01049 8.20947 8.18657 8.07089 8.37502C7.93493 8.56036 7.78668 8.73624 7.62714 8.9013C7.47086 9.06263 7.34252 9.14329 7.24208 9.14318C7.17731 9.1401 7.11362 9.12577 7.05374 9.10076C6.99537 9.07971 6.93799 9.05557 6.88202 9.02858C6.843 9.00874 6.77595 8.96918 6.68107 8.90968C6.58619 8.85028 6.53315 8.81777 6.52196 8.81205L6.52206 8.81215C5.80141 8.41524 5.1392 7.91804 4.55449 7.3351C3.97956 6.74224 3.48919 6.07084 3.09773 5.34012C3.09208 5.32877 3.06002 5.27499 3.00144 5.17879C2.94286 5.08259 2.90374 5.01471 2.88428 4.97504V4.97515C2.85766 4.9184 2.83385 4.86032 2.8131 4.80115C2.78843 4.74032 2.7743 4.67574 2.77125 4.61007C2.77125 4.50825 2.85081 4.37799 3.00992 4.21953V4.21964C3.17262 4.05787 3.34607 3.90758 3.52897 3.76972C3.71471 3.62932 3.88838 3.47306 4.04803 3.30281C4.20714 3.133 4.28658 2.99151 4.28658 2.87833C4.2855 2.79425 4.26539 2.7115 4.228 2.63646C4.17551 2.53155 4.1153 2.43083 4.04803 2.33506C3.96706 2.21627 3.91826 2.14552 3.90152 2.12282C3.81784 1.98133 3.73133 1.82992 3.64199 1.6687C3.55266 1.50737 3.45495 1.32775 3.349 1.12963C3.24292 0.9315 3.15924 0.778754 3.09783 0.671217C2.90243 0.275063 2.7545 0.0600744 2.65409 0.0260249H2.65398C2.59758 0.00629983 2.53791 -0.00240534 2.47825 0.000569694C2.27903 0.00718129 2.08114 0.0356124 1.88799 0.0854201C1.69193 0.127295 1.4999 0.186912 1.31449 0.263716C1.0354 0.382506 0.739566 0.727744 0.427008 1.29934C0.0736905 1.90972 -0.0663956 2.62301 0.0293415 3.32397C0.0532516 3.48894 0.0882471 3.65203 0.134001 3.81215C0.184212 3.9932 0.224641 4.12765 0.255399 4.21535C0.286157 4.30307 0.343324 4.4601 0.427008 4.68643C0.510801 4.91278 0.561012 5.05142 0.57775 5.10242C0.756315 5.62143 0.989217 6.11942 1.27256 6.58796C1.78683 7.40431 2.3923 8.1578 3.0769 8.83331C3.74322 9.52742 4.48628 10.1413 5.2914 10.6628C5.75351 10.9501 6.24466 11.1862 6.75654 11.3674C6.80675 11.3844 6.94347 11.4353 7.16681 11.5202C7.39004 11.6051 7.54502 11.6632 7.63152 11.6942C7.71804 11.7253 7.85063 11.7664 8.02919 11.8173L8.02908 11.8172C8.187 11.8637 8.34784 11.8991 8.51055 11.9233C9.20188 12.0204 9.90537 11.8784 10.5074 11.5201C11.0711 11.2032 11.4116 10.9033 11.5288 10.6203C11.6045 10.4323 11.6634 10.2377 11.7046 10.0389C11.7537 9.84298 11.7818 9.6423 11.7883 9.44031C11.7912 9.37982 11.7826 9.31932 11.7632 9.26213C11.7297 9.1602 11.5177 9.01022 11.1269 8.81221L11.1268 8.81216Z" fill="#7F7A7A"/>
</svg>
