<svg width="24" height="20" viewBox="0 0 24 20" fill="none" xmlns="http://www.w3.org/2000/svg">
<path d="M11.2402 17.2871C11.2402 18.3268 10.3971 19.1699 9.35741 19.1699C8.31771 19.1699 7.47461 18.3268 7.47461 17.2871C7.47461 16.2474 8.31771 15.4043 9.35741 15.4043C10.3971 15.4043 11.2402 16.2474 11.2402 17.2871Z" fill="white"/>
<path d="M20.7109 17.2871C20.7109 18.3268 19.8678 19.1699 18.8281 19.1699C17.7884 19.1699 16.9453 18.3268 16.9453 17.2871C16.9453 16.2474 17.7884 15.4043 18.8281 15.4043C19.8678 15.4043 20.7109 16.2474 20.7109 17.2871Z" fill="white"/>
<path d="M2.2826 1.0557L5.76292 14.1495C5.8485 14.5204 6.19083 14.7771 6.59024 14.7771H20.9106C21.31 14.7771 21.6523 14.4919 21.7379 14.121L23.8774 5.10644C23.9345 4.84969 23.8774 4.59295 23.7348 4.36473C23.5636 4.16504 23.3354 4.05093 23.0501 4.05093H3.85114L2.99533 0.827322C2.85269 0.34236 2.42478 0 1.91129 0H0V0.741708H1.91129C2.08245 0.770235 2.22509 0.884344 2.28214 1.05551L2.2826 1.0557ZM19.1133 11.6111H8.81485V10.8694H19.1133V11.6111ZM7.84525 7.36051H20.1116V8.10222H7.84525V7.36051Z" fill="white"/>
</svg>
