<svg width="15" height="15" viewBox="0 0 15 15" fill="none" xmlns="http://www.w3.org/2000/svg">
<path fill-rule="evenodd" clip-rule="evenodd" d="M11.1268 11.859C11.0207 11.7968 10.8701 11.7119 10.6747 11.6044C10.4794 11.4968 10.3021 11.3978 10.143 11.3073C9.98393 11.2167 9.8346 11.129 9.69504 11.0441C9.67276 11.0272 9.60299 10.9777 9.48572 10.8956L9.48594 10.8955C9.39139 10.8273 9.29205 10.7663 9.18868 10.713C9.11456 10.6751 9.03294 10.6547 8.95002 10.6536C8.8384 10.6536 8.69886 10.7343 8.53137 10.8956V10.8955C8.36346 11.0574 8.20947 11.2334 8.07089 11.4219C7.93493 11.6072 7.78668 11.7831 7.62714 11.9482C7.47086 12.1095 7.34252 12.1902 7.24208 12.1901C7.17731 12.187 7.11362 12.1726 7.05374 12.1476C6.99537 12.1266 6.93799 12.1024 6.88202 12.0755C6.843 12.0556 6.77595 12.0161 6.68107 11.9566C6.58619 11.8972 6.53315 11.8646 6.52196 11.8589L6.52206 11.859C5.80141 11.4621 5.1392 10.9649 4.55449 10.382C3.97956 9.78912 3.48919 9.11772 3.09773 8.38699C3.09208 8.37564 3.06002 8.32187 3.00144 8.22566C2.94286 8.12946 2.90374 8.06158 2.88428 8.02191V8.02202C2.85766 7.96527 2.83385 7.9072 2.8131 7.84802C2.78843 7.78719 2.7743 7.72262 2.77125 7.65694C2.77125 7.55512 2.85081 7.42487 3.00992 7.2664V7.26651C3.17262 7.10474 3.34607 6.95445 3.52897 6.81659C3.71471 6.6762 3.88838 6.51993 4.04803 6.34969C4.20714 6.17988 4.28658 6.03839 4.28658 5.92521C4.2855 5.84113 4.26539 5.75837 4.228 5.68333C4.17551 5.57842 4.1153 5.4777 4.04803 5.38193C3.96706 5.26314 3.91826 5.1924 3.90152 5.1697C3.81784 5.02821 3.73133 4.87679 3.64199 4.71557C3.55266 4.55424 3.45495 4.37463 3.349 4.17651C3.24292 3.97838 3.15924 3.82563 3.09783 3.71809C2.90243 3.32194 2.7545 3.10695 2.65409 3.0729H2.65398C2.59758 3.05317 2.53791 3.04447 2.47825 3.04744C2.27903 3.05406 2.08114 3.08249 1.88799 3.1323C1.69193 3.17417 1.4999 3.23379 1.31449 3.31059C1.0354 3.42938 0.739566 3.77462 0.427008 4.34621C0.0736905 4.95659 -0.0663956 5.66988 0.0293415 6.37085C0.0532516 6.53581 0.0882471 6.6989 0.134001 6.85902C0.184212 7.04008 0.224641 7.17452 0.255399 7.26223C0.286157 7.34995 0.343324 7.50697 0.427008 7.73331C0.510801 7.95965 0.561012 8.09829 0.57775 8.1493C0.756315 8.6683 0.989217 9.1663 1.27256 9.63484C1.78683 10.4512 2.3923 11.2047 3.0769 11.8802C3.74322 12.5743 4.48628 13.1882 5.2914 13.7097C5.75351 13.997 6.24466 14.2331 6.75654 14.4143C6.80675 14.4312 6.94347 14.4822 7.16681 14.5671C7.39004 14.652 7.54502 14.71 7.63152 14.7411C7.71804 14.7722 7.85063 14.8133 8.02919 14.8642L8.02908 14.8641C8.187 14.9106 8.34784 14.946 8.51055 14.9702C9.20188 15.0673 9.90537 14.9252 10.5074 14.567C11.0711 14.2501 11.4116 13.9501 11.5288 13.6672C11.6045 13.4792 11.6634 13.2846 11.7046 13.0858C11.7537 12.8899 11.7818 12.6892 11.7883 12.4872C11.7912 12.4267 11.7826 12.3662 11.7632 12.309C11.7297 12.2071 11.5177 12.0571 11.1269 11.8591L11.1268 11.859Z" fill="black"/>
<path fill-rule="evenodd" clip-rule="evenodd" d="M14.9948 4.27364C14.9765 2.91448 14.3301 1.64294 13.2492 0.839068C12.1682 0.0351935 10.7779 -0.20778 9.49373 0.182732C8.20978 0.573272 7.18087 1.55213 6.71474 2.82644C6.2486 4.10086 6.39923 5.52326 7.12164 6.66809C6.7782 7.13014 6.34325 7.51416 5.84473 7.79584C5.95265 8.07805 6.34965 8.16432 6.62312 8.19165C7.21565 8.25072 7.80243 8.13248 8.37897 7.96531V7.9652C9.24886 8.5434 10.2969 8.78 11.3265 8.63079C12.3562 8.48159 13.2969 7.95663 13.9721 7.1545C14.6475 6.35238 15.011 5.32801 14.9947 4.27369L14.9948 4.27364ZM8.83968 5.07058C8.66394 5.07058 8.49538 4.99983 8.37115 4.87377C8.24693 4.74781 8.17715 4.577 8.17715 4.39882C8.17715 4.22065 8.24692 4.04972 8.37115 3.92377C8.49548 3.79781 8.66392 3.72706 8.83968 3.72706C9.01542 3.72706 9.18387 3.79781 9.30821 3.92377C9.43243 4.04972 9.50221 4.22062 9.50221 4.39882C9.50221 4.57703 9.43243 4.74781 9.30821 4.87388C9.18388 4.99983 9.01543 5.07058 8.83968 5.07058V5.07058ZM10.7817 5.07058H10.7816C10.606 5.07058 10.4374 4.99983 10.3132 4.87377C10.189 4.74781 10.1191 4.577 10.1191 4.39882C10.1191 4.22065 10.189 4.04972 10.3132 3.92377C10.4374 3.79781 10.606 3.72706 10.7817 3.72706C10.9573 3.72706 11.1259 3.79781 11.2501 3.92377C11.3744 4.04972 11.4442 4.22062 11.4442 4.39882C11.4442 4.57703 11.3744 4.74781 11.2501 4.87388C11.1259 4.99983 10.9574 5.07058 10.7816 5.07058L10.7817 5.07058ZM12.7236 5.07058C12.5479 5.07058 12.3795 4.99983 12.2551 4.87377C12.1309 4.74781 12.0611 4.577 12.0611 4.39882C12.0611 4.22065 12.1309 4.04972 12.2551 3.92377C12.3794 3.79781 12.5479 3.72706 12.7236 3.72706C12.8994 3.72706 13.0678 3.79781 13.1922 3.92377C13.3164 4.04972 13.3862 4.22062 13.3862 4.39882C13.3862 4.57703 13.3164 4.74781 13.1922 4.87388C13.0678 4.99983 12.8994 5.07058 12.7236 5.07058V5.07058Z" fill="black"/>
</svg>
