<svg width="10" height="12" viewBox="0 0 10 12" fill="none" xmlns="http://www.w3.org/2000/svg">
<path d="M0.999674 10.6667C0.999674 11.4 1.59967 12 2.33301 12H7.66634C8.39967 12 8.99967 11.4 8.99967 10.6667V4C8.99967 3.26667 8.39967 2.66667 7.66634 2.66667H2.33301C1.59967 2.66667 0.999674 3.26667 0.999674 4V10.6667ZM8.99967 0.666667H7.33301L6.85967 0.193333C6.73967 0.0733333 6.56634 0 6.39301 0H3.60634C3.43301 0 3.25967 0.0733333 3.13967 0.193333L2.66634 0.666667H0.999674C0.633008 0.666667 0.333008 0.966667 0.333008 1.33333C0.333008 1.7 0.633008 2 0.999674 2H8.99967C9.36634 2 9.66634 1.7 9.66634 1.33333C9.66634 0.966667 9.36634 0.666667 8.99967 0.666667Z" fill="black"/>
</svg>
