<svg width="13" height="18" viewBox="0 0 13 18" fill="none" xmlns="http://www.w3.org/2000/svg">
<path d="M12.7928 8.24514C12.8033 8.23462 12.8033 8.22424 12.8033 8.21372C12.8138 8.20319 12.8138 8.19281 12.8242 8.17177C12.8242 8.16124 12.8347 8.15087 12.8347 8.14034C12.8347 8.12982 12.8452 8.11944 12.8452 8.10892C12.8558 8.05659 12.8558 8.01464 12.8452 7.96217C12.8452 7.95164 12.8347 7.94127 12.8347 7.93074C12.8347 7.92022 12.8242 7.90984 12.8242 7.89932C12.8137 7.88879 12.8137 7.87842 12.8033 7.85737C12.8033 7.84684 12.7928 7.83647 12.7928 7.83647C12.7823 7.81557 12.7613 7.79452 12.7508 7.78414L10.7706 5.80391C10.6238 5.65716 10.3935 5.65716 10.2467 5.80391C10.1 5.95066 10.1 6.18101 10.2467 6.32776L11.5983 7.67933H7.16653C6.96746 7.67933 6.7998 7.84699 6.7998 8.04606C6.7998 8.24513 6.96746 8.41279 7.16653 8.41279H11.5878L10.2363 9.76436C10.0895 9.91111 10.0895 10.1415 10.2363 10.2882C10.3096 10.3616 10.4039 10.393 10.4982 10.393C10.5925 10.393 10.6867 10.3616 10.7601 10.2882L12.7403 8.30798C12.7719 8.28708 12.7824 8.26603 12.7928 8.24513L12.7928 8.24514Z" fill="black"/>
<path d="M8.57018 0.356761V6.92586H7.83671L7.83686 0.723457H2.54596L5.97191 1.92828C6.11866 1.9806 6.22331 2.11683 6.22331 2.27396V17.6333C6.22331 17.759 6.17099 17.8638 6.06619 17.9371C6.00334 17.9791 5.92997 18 5.85659 18C5.81464 18 5.77284 17.9895 5.73089 17.9791L0.251402 16.0722H0.24117C0.230647 16.0722 0.22027 16.0617 0.22027 16.0617C0.209746 16.0512 0.199368 16.0512 0.17832 16.0408C0.167796 16.0408 0.167796 16.0303 0.157418 16.0303C0.146895 16.0198 0.125994 16.0094 0.115469 15.9989L0.104946 15.9883C0.0944219 15.9674 0.0735208 15.9569 0.0629966 15.936L0.0524728 15.9255C0.041949 15.915 0.0315714 15.8941 0.0315714 15.8835C0.0315714 15.873 0.0210476 15.873 0.0210476 15.8626C0.0105238 15.8521 0.0105238 15.8312 0.0105238 15.8207V15.7998C0.0105238 15.7789 0 15.7578 0 15.7369L0.000146164 0.356671C0.000146164 0.325246 0.000146164 0.304346 0.01067 0.272918C0.01067 0.262395 0.01067 0.262395 0.0211938 0.252017C0.0317176 0.231116 0.0317177 0.210068 0.0420952 0.199692C0.0420952 0.189168 0.052619 0.17879 0.052619 0.17879C0.0631428 0.157889 0.0735198 0.147365 0.0840437 0.136841L0.104945 0.11594C0.115469 0.0950386 0.136371 0.0845148 0.146895 0.0739906L0.157418 0.0634668C0.17832 0.052943 0.199367 0.0320418 0.230791 0.0215176C0.241315 0.0215176 0.241315 0.0215176 0.251692 0.0109938C0.272594 0.000470042 0.293641 0.000470042 0.304017 0.000470042H0.335443H0.366868H8.19321C8.41318 -0.0100538 8.5703 0.157595 8.5703 0.35667L8.57018 0.356761Z" fill="black"/>
<path d="M8.57033 9.14751V15.7166C8.57033 15.9262 8.40268 16.0833 8.20361 16.0833H6.94629V15.3499H7.83687V9.14746C7.83702 9.14761 8.57034 9.14761 8.57034 9.14761L8.57033 9.14751Z" fill="black"/>
</svg>
