<svg width="29" height="27" viewBox="0 0 29 27" fill="none" xmlns="http://www.w3.org/2000/svg">
<path d="M28.9777 21.2135C28.5473 16.4318 26.4049 8.54988 26.3083 8.19731C25.1522 4.595 20.4916 3.48545 18.8661 3.20243C18.9336 2.84004 18.9401 2.44261 18.8661 2.01015C18.863 1.98775 18.8565 1.96247 18.85 1.94007C18.8242 1.86378 18.5865 1.17384 17.8863 0.671491C17.79 0.598302 16.881 -0.0692516 14.4977 0.00705392C12.1111 -0.0756671 11.2086 0.595185 11.1284 0.65883C10.4121 1.1738 10.171 1.86376 10.1486 1.94001C10.1421 1.96241 10.1358 1.98769 10.1325 2.0101C10.0588 2.43923 10.0619 2.83668 10.1358 3.20237C8.51054 3.48536 3.84997 4.59801 2.68733 8.2194C2.59748 8.55007 0.454841 16.4319 0.0213291 21.2169C0.0148316 21.2803 -0.103918 22.8733 0.297588 23.9764C0.352257 24.129 0.48064 24.2434 0.638151 24.2849L3.16282 24.9207C3.32661 24.9653 3.49688 24.9176 3.62213 24.8063C3.66717 24.7651 4.71755 23.7921 5.18313 22.0594L6.2848 16.7658C6.21086 19.9545 6.20773 23.4771 6.4999 24.5422C6.5577 24.8252 6.86286 26.2624 7.42818 26.8474C7.51802 26.9459 7.64977 27 7.78151 27H21.2176C21.3525 27 21.4811 26.9459 21.571 26.8474C22.1362 26.2624 22.4414 24.8253 22.4927 24.5773C22.7882 23.493 22.7882 19.9577 22.7112 16.756L23.8193 22.0911C24.2851 23.7921 25.3355 24.7682 25.3772 24.8063C25.4993 24.9176 25.6727 24.962 25.8333 24.9207L28.3611 24.2849C28.5184 24.2437 28.647 24.1292 28.7017 23.9764C29.1063 22.8733 28.9842 21.2803 28.9779 21.2135H28.9777ZM12.6444 10.6165H8.63902C8.36589 10.6165 8.14766 10.4003 8.14766 10.1301C8.14766 9.85979 8.36612 9.64378 8.63902 9.64378H12.6444C12.9142 9.64378 13.1358 9.86001 13.1358 10.1301C13.136 10.4003 12.9142 10.6165 12.6444 10.6165ZM14.7324 4.12428C14.8287 4.26422 14.999 4.34695 15.1886 4.32787C16.4025 4.2039 17.0675 3.81268 17.0675 3.22144C17.0675 2.37578 15.6864 2.07686 14.5012 2.07686C13.3159 2.07686 11.9315 2.37892 11.9315 3.22144C11.9315 3.78409 12.5642 4.1815 13.682 4.31833C13.743 4.38819 13.8266 4.50263 13.894 4.64257C13.1392 4.59178 12.0341 4.38508 11.4657 3.75858C11.1189 3.3738 10.9967 2.86835 11.0996 2.21345C11.1413 2.11498 11.3115 1.73663 11.7196 1.4441C11.7261 1.43766 12.4713 0.925803 14.4819 0.98302H14.5012C14.5043 0.98302 14.5077 0.979916 14.5077 0.979916C14.5108 0.979916 14.5142 0.98302 14.5173 0.98302C16.541 0.925803 17.2732 1.43766 17.2925 1.4472C17.6875 1.7333 17.864 2.11164 17.9026 2.21343C18.0054 2.86521 17.8833 3.37068 17.5396 3.75232C16.8843 4.4804 15.5964 4.62035 14.9348 4.64255C14.8866 4.44849 14.8158 4.27684 14.7325 4.12426L14.7324 4.12428ZM20.3597 10.6165H16.3577C16.0846 10.6165 15.863 10.4003 15.863 10.1301C15.863 9.85979 16.0846 9.64378 16.3577 9.64378H20.3599C20.6331 9.64378 20.8547 9.86001 20.8547 10.1301C20.8544 10.4003 20.6328 10.6165 20.3597 10.6165H20.3597Z" fill="white"/>
</svg>
