<svg width="36" height="36" viewBox="0 0 36 36" fill="none" xmlns="http://www.w3.org/2000/svg">
<circle cx="18" cy="18" r="18" fill="white"/>
<path d="M22.1197 9.98926C21.2503 9.99597 20.3923 10.1888 19.604 10.5547C18.8156 10.9205 18.1152 11.451 17.55 12.1101C16.9848 11.451 16.2844 10.9205 15.496 10.5547C14.7077 10.1888 13.8497 9.99597 12.9802 9.98926C9.53775 9.98926 6.75 12.9584 6.75 16.621C6.75199 17.5835 6.90457 18.5399 7.20225 19.4555C7.33745 19.8872 7.49977 20.3099 7.68825 20.7212C10.314 26.4643 17.55 30.1875 17.55 30.1875C17.55 30.1875 24.786 26.4643 27.4117 20.7212C27.4117 20.7212 27.7492 19.9537 27.8977 19.4555C28.1884 18.5382 28.3408 17.583 28.35 16.621C28.35 12.9584 25.5622 9.98926 22.1197 9.98926ZM26.6085 19.0717C26.4841 19.4471 26.3398 19.8157 26.1765 20.1759C24.2122 24.4646 19.2915 27.629 17.55 28.6457C15.8085 27.629 10.881 24.4646 8.91675 20.1624C8.74922 19.8017 8.60493 19.4306 8.48475 19.0515C8.23284 18.2657 8.10308 17.446 8.1 16.621C8.1 13.7057 10.287 11.3358 12.9802 11.3358C13.6569 11.3397 14.3246 11.4898 14.9375 11.7757C15.5504 12.0616 16.094 12.4766 16.5308 12.9921L17.55 14.1636L18.5692 12.9921C19.006 12.4766 19.5496 12.0616 20.1625 11.7757C20.7754 11.4898 21.4431 11.3397 22.1197 11.3358C24.8197 11.3358 27 13.7057 27 16.621C26.9899 17.4526 26.858 18.2782 26.6085 19.0717Z" fill="black"/>
</svg>
