<svg width="14" height="15" viewBox="0 0 14 15" fill="none" xmlns="http://www.w3.org/2000/svg">
<path fill-rule="evenodd" clip-rule="evenodd" d="M2.9663 1.45806C4.91039 -0.486022 8.09028 -0.486022 10.0342 1.45806C11.9781 3.40215 11.9783 6.58205 10.0342 8.52594L7.09768 11.4624C6.76895 11.7917 6.23144 11.7917 5.90273 11.4624L2.96624 8.52594C1.02265 6.58235 1.02265 3.40195 2.96624 1.4584L2.9663 1.45806ZM10.3604 8.98472C11.9625 9.59169 13.002 10.5668 13.002 11.6669C13.002 13.5077 10.0911 15 6.501 15C2.91038 15 0 13.5079 0 11.6669C0 10.5673 1.03951 9.59222 2.64158 8.98472L3.1991 9.54224C1.71258 10.0109 0.740204 10.7878 0.740204 11.6668C0.740204 13.0985 3.31955 14.2596 6.50113 14.2596C9.68308 14.2596 12.2621 13.099 12.2621 11.6668C12.2621 10.7878 11.2897 10.0114 9.80316 9.54224L10.3604 8.98472ZM6.50106 6.864C7.53231 6.864 8.37349 6.02268 8.37349 4.99157C8.37349 3.96033 7.53217 3.11915 6.50106 3.11915C5.46982 3.11915 4.62864 3.96046 4.62864 4.99157C4.62864 6.02281 5.46995 6.864 6.50106 6.864Z" fill="black"/>
</svg>
