<svg width="14" height="10" viewBox="0 0 14 10" fill="none" xmlns="http://www.w3.org/2000/svg">
<path d="M1.05004 0C0.912469 0 0.781976 0.031792 0.66173 0.0841073L6.60074 5.78707C6.85745 6.03349 7.13089 6.03376 7.3882 5.78707L13.3381 0.0841073C13.218 0.0316588 13.0874 0 12.9498 0H1.04995H1.05004ZM0.010986 0.991588C0.0042723 1.04404 0 1.09917 0 1.15377V8.84608C0 9.48527 0.468246 10 1.05005 10H12.9499C13.5316 10 14 9.48544 14 8.84608V1.15377C14 1.09917 13.9957 1.04404 13.989 0.991454L8.07719 6.6587C7.46038 7.24987 6.52839 7.2508 5.91155 6.6587L0.0109822 0.991454L0.010986 0.991588Z" fill="#7F7A7A"/>
</svg>
