<svg width="17" height="15" viewBox="0 0 17 15" fill="none" xmlns="http://www.w3.org/2000/svg">
<path d="M6.94815 8.10598C7.02391 7.33718 7.66252 6.75884 8.43361 6.75884H10.2883L10.1378 5.0927C10.0742 4.37141 9.48273 3.82824 8.76172 3.82824H8.38676V2.93509C8.38676 2.09759 8.03338 1.34252 7.47026 0.807344C7.75522 0.68231 8.06908 0.612124 8.39952 0.612124C9.68038 0.612124 10.7229 1.65419 10.7229 2.93509V3.82823H10.2005C10.5043 4.14577 10.7057 4.5647 10.7473 5.03823L10.903 6.75911H13.0761L12.9223 5.09321C12.8585 4.37126 12.2667 3.82823 11.546 3.82823H11.3349V2.93509C11.3349 1.31673 10.0184 0 8.39978 0C7.863 0 7.36122 0.147163 6.92787 0.39995C6.49574 0.147305 5.99549 0 5.46031 0C3.84195 0 2.52523 1.31673 2.52523 2.93509V3.82823H2.15026C1.43617 3.82823 0.844831 4.3729 0.773933 5.09512L0.0060764 13.4893C-0.0294909 13.8949 0.0911961 14.251 0.365156 14.5463C0.638573 14.8482 0.979747 15 1.38241 15H6.69978C6.48026 14.7096 6.37586 14.3623 6.4136 13.9825L6.94815 8.10598ZM3.13702 2.93492C3.13702 1.65406 4.17909 0.611957 5.45998 0.611957C5.78865 0.611957 6.10102 0.682143 6.38451 0.806635C5.81948 1.34178 5.4646 2.0973 5.4646 2.93504V3.82819L3.13702 3.82805V2.93492ZM6.07645 3.82806V2.93492C6.07645 2.21242 6.40824 1.5662 6.92699 1.13952C7.44395 1.56582 7.77453 2.21242 7.77453 2.93492V3.82806H6.07645Z" fill="black"/>
<path d="M13.9319 8.16126C13.8875 7.71151 13.5108 7.37061 13.0555 7.37061H8.43491C7.9797 7.37061 7.60324 7.71149 7.55844 8.16341L7.02452 14.04C6.99872 14.2997 7.07312 14.5235 7.24553 14.709C7.42012 14.903 7.63937 14.9994 7.90082 14.9994H13.5988C13.8582 14.9994 14.0684 14.9057 14.2416 14.7129C14.4174 14.5238 14.4919 14.2997 14.4662 14.0427L13.9319 8.16126ZM12.8874 9.51274C12.8874 10.6984 11.9268 11.6633 10.7453 11.6633C9.5639 11.6633 8.60312 10.6983 8.60312 9.51274V8.87469C8.60312 8.70567 8.73996 8.56883 8.90898 8.56883C9.078 8.56883 9.21485 8.70594 9.21485 8.87469V9.51274C9.21485 10.3612 9.90152 11.0514 10.7451 11.0514C11.5887 11.0514 12.2754 10.3611 12.2754 9.51274V8.87469C12.2754 8.70567 12.4122 8.56883 12.5812 8.56883C12.7502 8.56883 12.8871 8.70594 12.8871 8.87469L12.8874 9.51274Z" fill="black"/>
<path d="M16.4127 14.043L15.8781 8.16126C15.833 7.70418 15.4646 7.37061 15.0016 7.37061H14.2578C14.4099 7.57927 14.5117 7.82825 14.5388 8.10343L15.0735 13.9849C15.1112 14.3613 15.0072 14.7071 14.7867 14.9996H15.5448C15.8042 14.9996 16.0144 14.906 16.1876 14.7132C16.3639 14.5238 16.4385 14.2997 16.4127 14.0432L16.4127 14.043Z" fill="black"/>
</svg>
