<svg width="16" height="20" viewBox="0 0 16 20" fill="none" xmlns="http://www.w3.org/2000/svg">
<path d="M7.66923 10.3507C10.4486 10.3507 12.7017 8.0336 12.7017 5.17534C12.7017 2.31708 10.4486 0 7.66923 0C4.88985 0 2.63672 2.31708 2.63672 5.17534C2.63672 8.0336 4.88985 10.3507 7.66923 10.3507Z" fill="#7F7A7A"/>
<path d="M15.081 14.9718C14.6333 14.1192 13.5887 13.5906 11.9886 13.2666C11.2491 13.123 10.5014 13.029 9.75007 12.9852C8.37039 12.8741 6.98436 12.8741 5.60468 12.9852C4.85044 13.027 4.0998 13.121 3.35787 13.2666C1.74117 13.565 0.696532 14.1192 0.25712 14.9718C0.0848635 15.305 -0.0034965 15.6773 0.000105897 16.0546C0.00146612 16.4297 0.0925817 16.7987 0.265411 17.1289C0.713113 17.9815 1.75775 18.5272 3.35787 18.8341C4.09655 18.9828 4.84464 19.0768 5.59639 19.1155C5.84511 19.1155 6.10212 19.1326 6.36743 19.1667C6.79026 19.1667 7.19651 19.1667 7.63592 19.1667C8.34064 19.1667 9.03706 19.1667 9.73349 19.0899C10.4852 19.0459 11.2331 18.949 11.972 18.8C13.6302 18.5102 14.6333 17.9474 15.081 17.0948C15.4173 16.4294 15.4173 15.6373 15.081 14.9718Z" fill="#7F7A7A"/>
</svg>
