<svg width="15" height="35" viewBox="0 0 15 35" fill="none" xmlns="http://www.w3.org/2000/svg">
<path d="M3.04685 2.24219H0.000976562V8.06058C2.08355 6.90023 3.05825 5.03833 3.04685 2.24219Z" fill="white"/>
<path d="M0.000976562 34.9996H4.81093L5.03711 32.6816H0.000976562V34.9996Z" fill="white"/>
<path d="M9.92567 34.9996H14.7373V32.6816H9.68652L9.92567 34.9996Z" fill="white"/>
<path d="M7.00988 5.87986C7.23526 5.87986 7.47391 5.76664 7.7303 5.30314L7.73056 2.24268H7.00879V5.87986H7.00985L7.00988 5.87986Z" fill="white"/>
<path d="M0.000976562 0H4.62161V1.64848H0.000976562V0Z" fill="white"/>
<path d="M5.21582 0H9.45171V1.64848H5.21582V0Z" fill="white"/>
<path d="M14.7391 7.99156V2.24268H11.8165C11.8054 4.98336 12.7408 6.827 14.7391 7.99156Z" fill="white"/>
<path d="M10.0459 0H14.7392V1.64848H10.0459V0Z" fill="white"/>
<path d="M12.1764 6.31292C11.5281 5.21434 11.2149 3.87981 11.2216 2.24219L8.32387 2.24245V5.37772C8.32387 5.42545 8.3122 5.47265 8.2902 5.51507C7.95345 6.16073 7.54113 6.47178 7.01078 6.47178C6.89438 6.47178 6.77241 6.45667 6.64407 6.42697C6.50937 6.39568 6.41418 6.27583 6.41418 6.13769V2.24249H3.63983C3.64646 3.88011 3.33331 5.21437 2.68502 6.31322C2.08364 7.33252 1.20461 8.12428 0 8.73385V32.0882H5.09424L7.00949 12.4673C7.02434 12.3156 7.15162 12.1997 7.30435 12.1992H7.30515C7.45735 12.1992 7.58489 12.3143 7.60054 12.4657L9.62583 32.0886H14.7379L14.7376 8.67049C13.5966 8.06964 12.7571 7.29774 12.1764 6.31374L12.1764 6.31292ZM1.27066 19.2693H3.61017C3.77431 19.2693 3.90715 19.4021 3.90715 19.5663C3.90715 19.7304 3.77431 19.8633 3.61017 19.8633H1.27066C1.10653 19.8633 0.973687 19.7304 0.973687 19.5663C0.973687 19.4024 1.10653 19.2693 1.27066 19.2693ZM4.50667 22.4382H1.29666C1.13253 22.4382 0.999685 22.3054 0.999685 22.1413C0.999685 21.9771 1.13253 21.8443 1.29666 21.8443H4.50667C4.67081 21.8443 4.80365 21.9771 4.80365 22.1413C4.80365 22.3051 4.67054 22.4382 4.50667 22.4382ZM4.6183 21.1509H1.98053C1.81639 21.1509 1.68355 21.018 1.68355 20.8539C1.68355 20.6898 1.81639 20.5569 1.98053 20.5569H4.6183C4.78244 20.5569 4.91528 20.6898 4.91528 20.8539C4.91528 21.0178 4.78244 21.1509 4.6183 21.1509ZM9.78415 12.847H12.1237C12.2878 12.847 12.4206 12.9799 12.4206 13.144C12.4206 13.3082 12.2878 13.441 12.1237 13.441H9.78415C9.62002 13.441 9.48718 13.3082 9.48718 13.144C9.48718 12.9802 9.62002 12.847 9.78415 12.847ZM13.0204 16.016H9.80886C9.64473 16.016 9.51188 15.8831 9.51188 15.719C9.51188 15.5549 9.64473 15.422 9.80886 15.422H13.0204C13.1846 15.422 13.3174 15.5549 13.3174 15.719C13.3174 15.8829 13.1843 16.016 13.0204 16.016ZM13.4288 14.4317C13.4288 14.5958 13.2959 14.7286 13.1318 14.7286H10.4932C10.3291 14.7286 10.1962 14.5958 10.1962 14.4317C10.1962 14.2675 10.3291 14.1347 10.4932 14.1347H13.1318C13.2959 14.1347 13.4288 14.2675 13.4288 14.4317Z" fill="white"/>
</svg>
