<svg width="14" height="15" viewBox="0 0 14 15" fill="none" xmlns="http://www.w3.org/2000/svg">
<path d="M11.9115 3.41797C9.94123 3.41018 8.14287 2.87117 6.70221 1.85547C5.2741 2.88363 3.56615 3.40861 1.6243 3.41797C1.56339 5.8523 1.97114 11.4303 6.73505 13.3774V13.3772C6.75675 13.3852 6.78048 13.3852 6.80218 13.3772C11.5661 11.4305 11.9725 5.8523 11.9114 3.41816L11.9115 3.41797ZM7.54438 7.43027V9.3178V9.31768C7.54438 9.5951 7.39632 9.85156 7.15607 9.99025C6.91582 10.1289 6.6198 10.129 6.37955 9.99025C6.13929 9.85154 5.99124 9.5951 5.99124 9.31768V7.43027C5.66407 7.2074 5.44827 6.85481 5.39886 6.46193C5.34947 6.06917 5.47127 5.67401 5.73312 5.37717C5.99508 5.08032 6.37187 4.9102 6.76776 4.9102C7.16375 4.9102 7.54058 5.08032 7.8024 5.37717C8.06436 5.67401 8.18605 6.06917 8.13667 6.46193C8.08739 6.85481 7.87159 7.20739 7.54441 7.43027L7.54438 7.43027Z" fill="black"/>
<path d="M13.4809 2.45329C13.4637 2.25847 13.3712 2.07803 13.2229 1.95047C13.0746 1.82292 12.8824 1.75841 12.6871 1.77052C10.4903 1.92985 8.58701 1.37991 7.17796 0.178397C7.04321 0.0627054 6.87129 -0.000476086 6.69374 2.7013e-06C6.51619 0.000602168 6.34487 0.0649827 6.21084 0.181515C4.80468 1.39239 2.99836 1.92841 0.846887 1.77207H0.846767C0.651467 1.75828 0.458581 1.82206 0.310034 1.94963C0.16137 2.07719 0.0690559 2.25811 0.0531117 2.45328C0.0249378 2.80169 0 3.27667 0 3.83918C0 6.92982 0.7625 12.686 6.12173 14.8749C6.53582 15.0417 6.99825 15.0417 7.41234 14.8749C13.7498 12.2846 13.6593 4.71266 13.481 2.45315L13.4809 2.45329ZM6.88864 13.5937C6.81035 13.625 6.72308 13.625 6.64491 13.5937C1.66858 11.5593 1.31379 5.71426 1.39328 3.29547C1.3952 3.23228 1.44723 3.18229 1.51041 3.18301H1.57443C3.51662 3.18301 5.21813 2.6549 6.63055 1.61584C6.67167 1.58611 6.72706 1.58611 6.76807 1.61584C8.18994 2.64078 9.98055 3.18301 11.9476 3.18301H12.0226C12.0858 3.18229 12.138 3.23228 12.1399 3.29547C12.2194 5.71432 11.8648 11.5595 6.88824 13.5937H6.88864Z" fill="black"/>
</svg>
