<svg width="16" height="16" viewBox="0 0 16 16" fill="none" xmlns="http://www.w3.org/2000/svg">
<path d="M10.4126 6.46735H3.12528L1.75305 7.62662V10.4421L3.12528 11.6014H10.4361L11.832 10.4421L11.8319 7.60292L10.4126 6.46735ZM3.76412 9.75606C3.36185 9.75606 3.03061 9.42482 3.03061 9.02255C3.03061 8.62029 3.36185 8.26543 3.76412 8.26543C4.16638 8.26543 4.49762 8.59667 4.49762 9.02255C4.49762 9.42482 4.16638 9.75606 3.76412 9.75606ZM6.79266 10.5841C5.94087 10.5841 5.23113 9.87434 5.23113 9.02255C5.23113 8.17076 5.94087 7.46101 6.79266 7.46101C7.64446 7.46101 8.3542 8.17076 8.3542 9.02255C8.33057 9.87434 7.64446 10.5841 6.79266 10.5841ZM9.79751 9.75606C9.39525 9.75606 9.04039 9.42482 9.04039 9.02255C9.04039 8.62029 9.37163 8.26543 9.79751 8.26543C10.1998 8.26543 10.531 8.59667 10.531 9.02255C10.5547 9.42482 10.2234 9.75606 9.79751 9.75606Z" fill="black"/>
<path d="M12.755 5.35529H0.830424C0.73577 5.35529 0.641113 5.4263 0.641113 5.5446V12.5004C0.641113 12.5951 0.712132 12.6897 0.830424 12.6897H12.755C12.8497 12.6897 12.9443 12.6187 12.9443 12.5004L12.9442 5.5446C12.9206 5.4263 12.8497 5.35529 12.755 5.35529V5.35529ZM12.1872 10.5131C12.1872 10.5604 12.1635 10.6078 12.1162 10.655L10.6019 11.909C10.5783 11.9326 10.5309 11.9562 10.4836 11.9562L3.05458 11.9564C3.00731 11.9564 2.98356 11.9327 2.93629 11.9091L1.44577 10.6551C1.3985 10.6315 1.37475 10.5841 1.37475 10.5132V7.53207C1.37475 7.48479 1.39839 7.43741 1.44577 7.39014L2.93629 6.1362C2.95993 6.11256 3.00731 6.08892 3.05458 6.08892H10.4839C10.5311 6.08892 10.5549 6.11256 10.6022 6.1362L12.1164 7.39014C12.1637 7.41378 12.1875 7.48479 12.1875 7.53207L12.1872 10.5131Z" fill="black"/>
<path d="M12.8024 3.91199L12.968 5.04765C12.897 5.02401 12.8261 5.00038 12.7551 5.00038H3.43323L12.6131 3.77008C12.7078 3.74644 12.8024 3.81746 12.8024 3.91201L12.8024 3.91199Z" fill="black"/>
<path d="M13.7488 10.8207C13.7488 10.868 13.7488 10.9154 13.7252 10.939C13.7015 10.9863 13.6541 11.01 13.6069 11.01L13.2755 11.0573V7.34277L13.7488 10.8207Z" fill="black"/>
<path d="M15.7835 8.2182C15.7835 12.3585 12.424 15.7183 8.28338 15.7183C6.48527 15.7183 4.73451 15.0558 3.36231 13.8728C3.29129 13.8018 3.26765 13.6835 3.33867 13.6126C3.40969 13.5416 3.50424 13.5416 3.59889 13.589C4.90021 14.7246 6.55633 15.3398 8.2835 15.3398C12.2348 15.3634 15.4287 12.1456 15.4287 8.21835C15.4287 4.29108 12.2345 1.0732 8.2835 1.0732C6.81663 1.0732 5.42059 1.49908 4.21402 2.35076L5.1841 2.49269C5.27876 2.51632 5.34967 2.58734 5.32603 2.70563C5.32603 2.80029 5.23137 2.84756 5.16046 2.84756H5.13683L3.74087 2.63461C3.64621 2.61098 3.5753 2.53996 3.59894 2.4453L3.81189 1.04934C3.83552 0.954689 3.90654 0.883779 4.02483 0.907417C4.14313 0.931053 4.1904 1.00207 4.16676 1.12036L4.00098 2.06691C5.25492 1.19147 6.72179 0.718323 8.28322 0.718323C12.4238 0.718323 15.7833 4.07786 15.7833 8.21845L15.7835 8.2182Z" fill="black"/>
<path d="M7.04261 8.89489L6.9929 9.07031H6.06179L6.11151 8.89489H7.04261ZM6.58949 10L6.08097 9.38281L6.07955 9.24432H6.33168C6.39465 9.24432 6.44792 9.23461 6.49148 9.2152C6.53504 9.19579 6.56818 9.16761 6.59091 9.13068C6.61364 9.09328 6.625 9.04782 6.625 8.99432C6.625 8.91477 6.60133 8.85156 6.55398 8.80469C6.50663 8.75781 6.43253 8.73438 6.33168 8.73438H6.06179L6.11364 8.54545H6.33168C6.4491 8.54545 6.54593 8.56416 6.62216 8.60156C6.69839 8.63897 6.75521 8.69081 6.79261 8.7571C6.83002 8.82339 6.84872 8.89986 6.84872 8.98651C6.84872 9.06368 6.83333 9.13352 6.80256 9.19602C6.77178 9.25852 6.72277 9.30942 6.65554 9.34872C6.5883 9.38802 6.5 9.41098 6.39062 9.41761L6.38423 9.41903L6.84872 9.98793V10H6.58949ZM7.04332 8.54545L6.9929 8.7223L6.24858 8.71804L6.29901 8.54545H7.04332Z" fill="black"/>
</svg>
