<svg width="22" height="26" viewBox="0 0 22 26" fill="none" xmlns="http://www.w3.org/2000/svg">
<path d="M19.2481 6.32048L17.1185 6.04275L16.6246 2.18473C16.5938 1.876 16.3468 1.59826 16.0381 1.53647H16.0073L14.032 1.10439C12.1493 0.734084 10.2666 0.734084 8.38388 1.10439L6.50116 1.47469H6.47038C6.16165 1.53648 5.91493 1.81421 5.8839 2.12295L5.39024 6.01194L3.26056 6.28967C1.96427 6.47482 0.976562 7.58596 0.976562 8.8822V22.5859C0.976562 24.376 2.42718 25.8267 4.21735 25.8267H10.7605V10.086C10.7605 9.83901 10.9767 9.62308 11.2234 9.62308C11.4704 9.62308 11.6863 9.83923 11.6863 10.086V25.7958H18.2295C20.0196 25.7958 21.4703 24.3452 21.4703 22.555L21.4705 8.91306C21.5323 7.6166 20.5445 6.47469 19.2483 6.32031L19.2481 6.32048ZM6.47038 9.80818L7.14939 4.46874L9.8963 8.72804L6.47038 9.80818ZM11.2544 8.01806L7.89024 2.80196L8.66185 2.6476C10.3284 2.30808 12.026 2.30808 13.6928 2.6476L14.557 2.83275L11.2544 8.01806ZM14.0939 22.1847C13.6 22.1847 13.1989 21.7834 13.1989 21.3205C13.1989 20.8266 13.6002 20.4255 14.0939 20.4255C14.5878 20.4255 14.9888 20.8268 14.9888 21.3205C14.989 21.7836 14.5877 22.1847 14.0939 22.1847ZM14.0939 18.4811C13.6 18.4811 13.1989 18.0798 13.1989 17.6169C13.1989 17.123 13.6002 16.7219 14.0939 16.7219C14.5878 16.7219 14.9888 17.1232 14.9888 17.6169C14.989 18.0797 14.5877 18.4811 14.0939 18.4811ZM14.0939 14.7774C13.6 14.7774 13.1989 14.3761 13.1989 13.9132C13.1989 13.4193 13.6002 13.0183 14.0939 13.0183C14.5878 13.0183 14.9888 13.4196 14.9888 13.9132C14.989 14.3761 14.5877 14.7774 14.0939 14.7774ZM12.6125 8.72804L15.3594 4.46874L16.0384 9.80818L12.6125 8.72804Z" fill="white"/>
</svg>
