<svg width="12" height="15" viewBox="0 0 12 15" fill="none" xmlns="http://www.w3.org/2000/svg">
<path d="M9.94269 2.52873L7.54013 0.126165C7.50849 0.0945215 7.47696 0.0787549 7.44531 0.0629883V2.62356H10.0059C9.99011 2.59191 9.95847 2.56027 9.9427 2.52874L9.94269 2.52873Z" fill="black"/>
<path d="M10.0685 9.02531V3.52477H6.98631C6.73339 3.52477 6.54374 3.31926 6.54374 3.0822V0H0.442572C0.189649 0 0 0.205514 0 0.442572V12.4869C0 12.7398 0.205514 12.9294 0.442572 12.9294H5.95892C6.38571 14.1307 7.53953 15 8.88305 15C10.5901 15 11.9969 13.609 11.9969 11.8862C11.9968 10.606 11.1906 9.49949 10.0684 9.02528L10.0685 9.02531ZM2.48156 2.62382H4.67862C4.93154 2.62382 5.12119 2.82933 5.12119 3.06639C5.12119 3.31931 4.91568 3.50896 4.67862 3.50896H2.48156C2.22864 3.50896 2.03899 3.30345 2.03899 3.06639C2.03899 2.82923 2.24451 2.62382 2.48156 2.62382V2.62382ZM2.48156 5.02627H7.57114C7.82407 5.02627 8.01371 5.23178 8.01371 5.46884C8.01371 5.72176 7.8082 5.91141 7.57114 5.91141L2.48156 5.91152C2.22864 5.91152 2.03899 5.70601 2.03899 5.46895C2.03899 5.23179 2.24451 5.02627 2.48156 5.02627V5.02627ZM2.48156 7.42883H7.57114C7.82407 7.42883 8.01371 7.63434 8.01371 7.8714C8.01371 8.10845 7.8082 8.31397 7.57114 8.31397H2.48156C2.22864 8.31397 2.03899 8.10846 2.03899 7.8714C2.03899 7.63435 2.24451 7.42883 2.48156 7.42883ZM5.23186 10.7165H2.48156C2.22864 10.7165 2.03899 10.511 2.03899 10.2739C2.03899 10.0369 2.24451 9.83136 2.48156 9.83136H5.23186C5.48478 9.83136 5.67443 10.0369 5.67443 10.2739C5.67443 10.511 5.48468 10.7165 5.23186 10.7165ZM8.88308 14.1148C7.66598 14.1148 6.67028 13.119 6.67028 11.902C6.67028 10.6849 7.66609 9.68922 8.88308 9.68922C10.1002 9.68922 11.0959 10.685 11.0959 11.902C11.0959 13.1191 10.1002 14.1148 8.88308 14.1148Z" fill="black"/>
<path d="M9.48329 11.0327L8.51912 11.9969L8.20302 11.6808C8.02915 11.507 7.7447 11.507 7.57083 11.6808C7.39696 11.8547 7.39696 12.1392 7.57083 12.313L8.21891 12.9611C8.31373 13.0559 8.42443 13.0876 8.53501 13.0876C8.6457 13.0876 8.77205 13.0402 8.8511 12.9611L10.1473 11.6649C10.3211 11.4911 10.3211 11.2066 10.1473 11.0327C9.94164 10.8589 9.65719 10.8589 9.48332 11.0327H9.48329Z" fill="black"/>
</svg>
