<svg width="23" height="20" viewBox="0 0 23 20" fill="none" xmlns="http://www.w3.org/2000/svg">
<path d="M0 1.39307V18.6069C0 19.3639 0.608876 20 1.35713 20H20.8163C21.5646 20 22.1809 19.364 22.1809 18.6069V12.3937H18.1716C17.3166 12.3937 16.5263 11.9374 16.0987 11.1969C15.6712 10.4564 15.6712 9.54378 16.0987 8.80326C16.5263 8.06274 17.3166 7.60647 18.1716 7.60647H22.1809V2.23407H3.38894C3.21264 2.23407 3.06979 2.09121 3.06979 1.91492C3.06979 1.73863 3.21264 1.59577 3.38894 1.59577H22.1809V1.39307C22.1809 0.636061 21.5646 0 20.8163 0H1.35713C0.608827 0 0 0.636012 0 1.39307ZM6.60085 5.85109H4.39757H4.39776C4.22147 5.85109 4.07861 5.70823 4.07861 5.53194C4.07861 5.35565 4.22147 5.21279 4.39776 5.21279H10.6027C10.779 5.21279 10.9219 5.35565 10.9219 5.53194C10.9219 5.70823 10.779 5.85109 10.6027 5.85109H8.43783C9.06358 6.34996 9.46558 7.07716 9.55525 7.87234H10.6025C10.7788 7.87234 10.9217 8.0152 10.9217 8.19149C10.9217 8.36778 10.7788 8.51064 10.6025 8.51064H9.55598C9.47677 9.23973 9.13178 9.91431 8.58655 10.405C8.04133 10.8955 7.33446 11.1681 6.60099 11.1702H5.25125L8.74382 14.2089C8.8086 14.2642 8.8485 14.343 8.85476 14.428C8.86122 14.5129 8.8333 14.5968 8.77745 14.6611C8.72179 14.7255 8.64257 14.7648 8.55766 14.7707C8.47274 14.7764 8.38896 14.7479 8.32494 14.6916L4.18833 11.0942C4.08803 11.0064 4.0525 10.8656 4.09905 10.7408C4.14559 10.6158 4.26451 10.5326 4.39787 10.5319H6.60115H6.60096C7.1669 10.536 7.71454 10.3326 8.14066 9.96004C8.56657 9.5877 8.84126 9.07192 8.9125 8.51056H4.39787C4.22158 8.51056 4.07873 8.3677 4.07873 8.19141C4.07873 8.01512 4.22158 7.87226 4.39787 7.87226H8.91211C8.75501 6.75522 7.77874 5.85101 6.60096 5.85101L6.60085 5.85109Z" fill="black"/>
<path d="M18.3491 10.4809C18.4941 10.4834 18.6263 10.3979 18.6835 10.2647C18.7406 10.1314 18.7116 9.97675 18.6099 9.8734C18.5083 9.76987 18.3542 9.73834 18.2199 9.79324C18.0858 9.84814 17.9981 9.97865 17.9981 10.1238C17.9965 10.3193 18.1536 10.479 18.3491 10.4809L18.3491 10.4809Z" fill="black"/>
<path d="M16.4121 9.99998C16.411 10.4665 16.596 10.9143 16.9264 11.2439C17.2565 11.5733 17.7047 11.7574 18.1712 11.7553H22.4465V8.24465H18.1712C17.7047 8.24256 17.2565 8.42664 16.9264 8.75606C16.596 9.08566 16.4109 9.5334 16.4121 9.99998ZM19.3382 10.1242C19.3365 10.3862 19.2311 10.6369 19.0449 10.8212C18.8585 11.0057 18.6068 11.1084 18.3448 11.1075C18.0827 11.1064 17.8319 11.0015 17.6471 10.8155C17.4624 10.6297 17.3589 10.3782 17.3595 10.116C17.36 9.85407 17.4645 9.60292 17.6499 9.41792C17.8353 9.2327 18.0869 9.12879 18.3488 9.12879C18.6119 9.12993 18.8638 9.23517 19.0494 9.42191C19.2348 9.60846 19.3387 9.86112 19.3382 10.1242L19.3382 10.1242Z" fill="black"/>
</svg>
